<?xml version="1.0" encoding="UTF-8"?>
<!DOCTYPE svg PUBLIC "-//W3C//DTD SVG 1.1//EN" "http://www.w3.org/Graphics/SVG/1.1/DTD/svg11.dtd">
<svg xmlns="http://www.w3.org/2000/svg" version="1.1" width="500px" height="500px" style="shape-rendering:geometricPrecision; text-rendering:geometricPrecision; image-rendering:optimizeQuality; fill-rule:evenodd; clip-rule:evenodd" xmlns:xlink="http://www.w3.org/1999/xlink">
<g><path style="opacity:0.051" fill="#2d2b4d" d="M 373.5,118.5 C 392.503,118.333 411.503,118.5 430.5,119C 431,119.5 431.5,120 432,120.5C 432.5,136.163 432.667,151.83 432.5,167.5C 431.833,152.167 431.167,136.833 430.5,121.5C 429.081,120.549 427.415,120.216 425.5,120.5C 408.167,119.833 390.833,119.167 373.5,118.5 Z"/></g>
<g><path style="opacity:0.486" fill="#292446" d="M 226.5,118.5 C 244.224,118.216 261.558,118.549 278.5,119.5C 277.833,121.833 277.167,124.167 276.5,126.5C 275.833,126.5 275.167,126.5 274.5,126.5C 275.63,124.685 276.296,122.685 276.5,120.5C 259.64,120.753 242.973,120.086 226.5,118.5 Z"/></g>
<g><path style="opacity:0.602" fill="#1d1645" d="M 373.5,118.5 C 390.833,119.167 408.167,119.833 425.5,120.5C 407.497,120.333 389.497,120.5 371.5,121C 370.062,121.219 368.729,121.719 367.5,122.5C 366.533,125.129 364.867,127.129 362.5,128.5C 363.096,126.255 364.096,124.255 365.5,122.5C 365.5,121.5 365.5,120.5 365.5,119.5C 368.096,118.735 370.763,118.401 373.5,118.5 Z"/></g>
<g><path style="opacity:0.992" fill="#131241" d="M 226.5,118.5 C 242.973,120.086 259.64,120.753 276.5,120.5C 276.296,122.685 275.63,124.685 274.5,126.5C 274.5,126.833 274.5,127.167 274.5,127.5C 274.167,127.5 273.833,127.5 273.5,127.5C 272.28,125.718 271.614,123.718 271.5,121.5C 233.825,121.715 196.159,121.382 158.5,120.5C 158.333,137.503 158.5,154.503 159,171.5C 159.333,172.833 159.667,174.167 160,175.5C 161.533,175.056 163.033,174.723 164.5,174.5C 165.386,175.325 165.719,176.325 165.5,177.5C 163.167,177.5 160.833,177.5 158.5,177.5C 159.051,180.807 159.384,184.14 159.5,187.5C 161.981,187.774 163.647,189.107 164.5,191.5C 162.5,190.5 160.5,189.5 158.5,188.5C 157.833,187.167 156.833,186.167 155.5,185.5C 155.173,163.258 155.506,141.091 156.5,119C 179.831,118.5 203.164,118.333 226.5,118.5 Z"/></g>
<g><path style="opacity:0.911" fill="#d85012" d="M 283.5,118.5 C 290.008,119.585 296.675,119.585 303.5,118.5C 309.463,119.83 315.796,120.496 322.5,120.5C 328.833,120.333 335.167,120.167 341.5,120C 340.944,119.617 340.611,119.117 340.5,118.5C 348.905,119.417 357.238,119.751 365.5,119.5C 365.5,120.5 365.5,121.5 365.5,122.5C 364.833,122.833 364.167,123.167 363.5,123.5C 350.183,122.167 336.517,121.501 322.5,121.5C 308.833,121.667 295.167,121.833 281.5,122C 280.627,123.045 279.627,123.878 278.5,124.5C 279.539,121.865 281.206,119.865 283.5,118.5 Z"/></g>
<g><path style="opacity:0.378" fill="#c26638" d="M 303.5,118.5 C 315.833,118.5 328.167,118.5 340.5,118.5C 340.611,119.117 340.944,119.617 341.5,120C 335.167,120.167 328.833,120.333 322.5,120.5C 315.796,120.496 309.463,119.83 303.5,118.5 Z"/></g>
<g><path style="opacity:1" fill="#974026" d="M 283.5,118.5 C 281.206,119.865 279.539,121.865 278.5,124.5C 278.167,125.5 277.5,126.167 276.5,126.5C 277.167,124.167 277.833,121.833 278.5,119.5C 280.292,119.634 281.958,119.301 283.5,118.5 Z"/></g>
<g><path style="opacity:1" fill="#f45605" d="M 363.5,123.5 C 362.143,124.59 361.143,125.924 360.5,127.5C 359.504,127.414 358.671,127.748 358,128.5C 357.032,133.449 354.365,137.116 350,139.5C 349.889,142.944 348.223,145.277 345,146.5C 342.94,149.286 341.44,152.286 340.5,155.5C 339.504,155.414 338.671,155.748 338,156.5C 337,158.5 336,160.5 335,162.5C 333.989,161.663 332.822,161.33 331.5,161.5C 331.595,164.692 330.929,167.692 329.5,170.5C 329.5,170.833 329.5,171.167 329.5,171.5C 327.088,171.694 326.088,173.027 326.5,175.5C 325.5,175.5 324.5,175.5 323.5,175.5C 323.649,176.552 323.483,177.552 323,178.5C 317.241,184.363 312.741,191.029 309.5,198.5C 308.508,198.328 307.842,198.662 307.5,199.5C 305.364,200.719 303.031,201.552 300.5,202C 302.045,203.688 303.045,205.688 303.5,208C 314.853,207.001 326.186,207.334 337.5,209C 343.183,209.832 348.516,211.832 353.5,215C 355.473,215.495 357.473,215.662 359.5,215.5C 360.167,215.5 360.833,215.5 361.5,215.5C 363.373,218.449 366.039,220.449 369.5,221.5C 370.167,221.5 370.833,221.5 371.5,221.5C 375.167,225.833 379.167,229.833 383.5,233.5C 384.08,235.749 385.413,237.415 387.5,238.5C 389.283,244.271 392.283,249.271 396.5,253.5C 396.177,257.226 396.511,260.893 397.5,264.5C 399.604,267.28 401.438,270.28 403,273.5C 403.261,277.706 403.761,281.873 404.5,286C 404.167,286.5 403.833,287 403.5,287.5C 402.984,284.749 401.817,282.416 400,280.5C 399.35,283.819 399.85,286.986 401.5,290C 401.561,291.711 400.894,293.044 399.5,294C 401.246,296.774 402.746,296.274 404,292.5C 404.333,292.833 404.667,293.167 405,293.5C 405.5,304.509 405.333,315.509 404.5,326.5C 404.5,328.167 404.5,329.833 404.5,331.5C 402.272,337.289 399.439,342.956 396,348.5C 394.921,351.063 394.421,353.729 394.5,356.5C 393.5,358.5 392.5,360.5 391.5,362.5C 390.5,362.5 389.5,362.5 388.5,362.5C 388.5,363.833 388.5,365.167 388.5,366.5C 327.167,366.5 265.833,366.5 204.5,366.5C 204.02,363.995 203.02,361.662 201.5,359.5C 202.326,358.549 202.492,357.549 202,356.5C 200.989,357.337 199.822,357.67 198.5,357.5C 196.099,353.458 193.766,349.458 191.5,345.5C 190.262,343.786 189.595,341.786 189.5,339.5C 189.132,335.658 188.132,331.991 186.5,328.5C 184.604,327.361 183.604,328.027 183.5,330.5C 181.457,331.579 180.124,333.246 179.5,335.5C 174.201,340.792 168.534,345.792 162.5,350.5C 159.873,351.092 157.206,351.425 154.5,351.5C 154.5,352.833 154.5,354.167 154.5,355.5C 150.399,355.798 147.733,354.132 146.5,350.5C 145.5,350.5 144.5,350.5 143.5,350.5C 143.662,352.824 144.828,354.491 147,355.5C 146.89,360.253 144.39,362.087 139.5,361C 139.07,360.08 138.736,359.247 138.5,358.5C 136.465,359.041 134.465,359.708 132.5,360.5C 133.833,361.167 135.167,361.833 136.5,362.5C 135.873,363.417 135.539,364.417 135.5,365.5C 130.313,367.281 124.98,368.781 119.5,370C 105.148,370.725 90.8151,370.558 76.5,369.5C 62.2134,366.688 49.5467,360.688 38.5,351.5C 38.9382,351.565 39.2716,351.399 39.5,351C 36.4771,347.397 33.1437,344.23 29.5,341.5C 27.2271,337.934 24.7271,334.601 22,331.5C 20.4947,329.702 20.3281,327.868 21.5,326C 18.5529,325.888 17.2196,324.388 17.5,321.5C 16.325,321.719 15.325,321.386 14.5,320.5C 14.0187,316.257 12.8521,312.257 11,308.5C 10,307.833 9,307.167 8,306.5C 4.889,298.011 2.889,289.344 2,280.5C 1.2917,279.619 0.458367,278.953 -0.5,278.5C -0.5,273.833 -0.5,269.167 -0.5,264.5C 0.789915,263.942 1.62325,262.942 2,261.5C 1.9935,254.9 3.66017,248.9 7,243.5C 8.079,238.532 8.91233,233.532 9.5,228.5C 13.0016,219.482 18.0016,211.482 24.5,204.5C 24.4346,204.938 24.6012,205.272 25,205.5C 30.062,200.269 35.2286,195.269 40.5,190.5C 47.7688,184.03 56.1021,179.363 65.5,176.5C 74.6457,173.956 83.6457,171.956 92.5,170.5C 92.5,169.833 92.8333,169.5 93.5,169.5C 95.223,170.8 97.3897,171.467 100,171.5C 109.162,172.305 118.328,172.972 127.5,173.5C 128.058,174.79 129.058,175.623 130.5,176C 134.66,177.624 138.993,178.791 143.5,179.5C 147.745,181.096 151.745,183.096 155.5,185.5C 156.833,186.167 157.833,187.167 158.5,188.5C 161.055,192.114 164.388,194.781 168.5,196.5C 169.5,196.833 170.167,197.5 170.5,198.5C 173.436,203.105 177.102,207.105 181.5,210.5C 183.833,213.833 186.167,217.167 188.5,220.5C 189.243,226.643 191.577,231.976 195.5,236.5C 195.674,238.861 196.007,241.194 196.5,243.5C 198.144,243.714 199.644,243.38 201,242.5C 202.791,238.964 204.291,235.297 205.5,231.5C 207.371,231.141 208.871,230.141 210,228.5C 211.039,224.528 212.539,220.861 214.5,217.5C 216.547,215.45 218.214,213.117 219.5,210.5C 221.587,209.415 222.92,207.749 223.5,205.5C 226.589,203.25 228.589,200.25 229.5,196.5C 231.994,194.201 234.494,191.867 237,189.5C 237.743,191.645 238.576,191.811 239.5,190C 239.167,189 238.833,188 238.5,187C 240.915,183.101 242.582,178.934 243.5,174.5C 247.151,172.53 249.151,169.53 249.5,165.5C 252.325,164.522 253.658,162.522 253.5,159.5C 256.521,155.798 259.188,151.798 261.5,147.5C 262.075,145.589 263.075,143.922 264.5,142.5C 265.794,141.71 266.961,140.71 268,139.5C 270.433,135.633 272.6,131.633 274.5,127.5C 274.5,127.167 274.5,126.833 274.5,126.5C 275.167,126.5 275.833,126.5 276.5,126.5C 277.5,126.167 278.167,125.5 278.5,124.5C 279.627,123.878 280.627,123.045 281.5,122C 295.167,121.833 308.833,121.667 322.5,121.5C 336.517,121.501 350.183,122.167 363.5,123.5 Z"/></g>
<g><path style="opacity:1" fill="#020046" d="M 273.5,127.5 C 272.542,127.953 271.708,128.619 271,129.5C 268.927,133.89 266.76,138.224 264.5,142.5C 263.075,143.922 262.075,145.589 261.5,147.5C 257.623,150.707 254.956,154.707 253.5,159.5C 251.782,161.223 250.449,163.223 249.5,165.5C 247.484,167.249 245.818,169.249 244.5,171.5C 241.754,173.413 239.254,175.746 237,178.5C 233.878,184.094 231.044,189.76 228.5,195.5C 227.167,195.5 225.833,195.5 224.5,195.5C 220.953,201.423 217.953,207.756 215.5,214.5C 214.675,215.386 213.675,215.719 212.5,215.5C 211.833,217.5 211.167,219.5 210.5,221.5C 208.833,224.833 207.167,228.167 205.5,231.5C 203.482,233.528 201.815,235.862 200.5,238.5C 199.624,238.631 198.957,238.298 198.5,237.5C 197.689,233.395 196.022,229.729 193.5,226.5C 192.526,224.257 192.192,221.924 192.5,219.5C 191.5,219.5 190.5,219.5 189.5,219.5C 188.677,216.649 187.344,213.982 185.5,211.5C 184.423,210.295 183.09,209.628 181.5,209.5C 179.5,207.167 177.5,204.833 175.5,202.5C 172.833,197.833 169.167,194.167 164.5,191.5C 163.647,189.107 161.981,187.774 159.5,187.5C 159.384,184.14 159.051,180.807 158.5,177.5C 160.833,177.5 163.167,177.5 165.5,177.5C 165.719,176.325 165.386,175.325 164.5,174.5C 163.033,174.723 161.533,175.056 160,175.5C 159.667,174.167 159.333,172.833 159,171.5C 158.5,154.503 158.333,137.503 158.5,120.5C 196.159,121.382 233.825,121.715 271.5,121.5C 271.614,123.718 272.28,125.718 273.5,127.5 Z"/></g>
<g><path style="opacity:1" fill="#6f2526" d="M 365.5,122.5 C 364.096,124.255 363.096,126.255 362.5,128.5C 360.833,130.5 359.167,132.5 357.5,134.5C 358.227,132.046 359.227,129.713 360.5,127.5C 361.143,125.924 362.143,124.59 363.5,123.5C 364.167,123.167 364.833,122.833 365.5,122.5 Z"/></g>
<g><path style="opacity:1" fill="#01004a" d="M 428.5,169.5 C 428.5,169.833 428.5,170.167 428.5,170.5C 417.91,171.642 407.243,171.808 396.5,171C 391.196,167.211 387.029,168.044 384,173.5C 383.179,176.554 383.345,179.554 384.5,182.5C 386.084,180.048 386.417,177.548 385.5,175C 387.594,173.648 389.927,173.148 392.5,173.5C 392.657,174.873 392.49,176.207 392,177.5C 391.333,176.167 390.667,176.167 390,177.5C 389.902,190.887 390.735,204.221 392.5,217.5C 393.5,217.5 394.5,217.5 395.5,217.5C 396.568,218.434 397.901,218.768 399.5,218.5C 400.598,219.397 400.598,220.23 399.5,221C 396.518,221.498 393.518,221.665 390.5,221.5C 389.756,225.119 389.423,228.785 389.5,232.5C 383.98,231.956 382.646,229.456 385.5,225C 383.963,223.89 383.297,222.39 383.5,220.5C 382.5,220.5 381.5,220.5 380.5,220.5C 381.42,226.854 379.754,227.188 375.5,221.5C 379.537,220.093 380.871,217.426 379.5,213.5C 377.729,214.035 377.396,214.869 378.5,216C 377.552,216.483 376.552,216.649 375.5,216.5C 375.5,215.5 375.5,214.5 375.5,213.5C 373.5,213.5 371.5,213.5 369.5,213.5C 369.719,214.675 369.386,215.675 368.5,216.5C 367.355,215.224 367.355,213.891 368.5,212.5C 367.675,211.614 366.675,211.281 365.5,211.5C 366.64,208.975 367.307,206.308 367.5,203.5C 363.454,202.987 359.454,202.154 355.5,201C 360.794,200.182 360.794,199.682 355.5,199.5C 355.67,198.178 355.337,197.011 354.5,196C 357.324,195.772 359.657,194.605 361.5,192.5C 355.48,192.04 349.48,191.706 343.5,191.5C 343.649,190.448 343.483,189.448 343,188.5C 340.966,189.743 340.133,191.243 340.5,193C 337.748,193.212 335.248,194.045 333,195.5C 329.541,194.19 326.375,192.523 323.5,190.5C 323.5,190.167 323.5,189.833 323.5,189.5C 323.435,189.062 323.601,188.728 324,188.5C 329.121,192.095 330.787,190.762 329,184.5C 325.667,182.5 325.667,180.5 329,178.5C 329.494,180.134 329.66,181.801 329.5,183.5C 330.833,183.5 332.167,183.5 333.5,183.5C 334.158,180.844 334.825,178.178 335.5,175.5C 335.167,174.5 334.833,173.5 334.5,172.5C 333.833,173.833 333.167,175.167 332.5,176.5C 332.167,176.333 331.833,176.167 331.5,176C 332.158,173.273 333.325,170.773 335,168.5C 338.409,169.622 341.909,169.789 345.5,169C 346.676,166.699 348.01,166.366 349.5,168C 347.625,173.77 348.625,174.603 352.5,170.5C 354.045,169.548 355.712,169.215 357.5,169.5C 358.258,166.513 359.091,163.513 360,160.5C 362.272,159.209 364.439,158.543 366.5,158.5C 367.328,153.868 367.828,149.202 368,144.5C 373.116,143.856 378.282,143.189 383.5,142.5C 377.537,141.504 371.537,141.171 365.5,141.5C 365.719,142.675 365.386,143.675 364.5,144.5C 364.167,144 363.833,143.5 363.5,143C 365.458,140.851 365.791,138.518 364.5,136C 364.89,132.809 366.224,130.142 368.5,128C 367.862,126.293 367.862,124.46 368.5,122.5C 379.187,122.168 389.854,122.501 400.5,123.5C 400.291,124.086 399.957,124.586 399.5,125C 402.758,125.212 405.924,125.712 409,126.5C 410.667,126.167 412.333,125.833 414,125.5C 414.167,125.833 414.333,126.167 414.5,126.5C 412.167,126.833 409.833,127.167 407.5,127.5C 399.501,126.759 391.501,126.093 383.5,125.5C 383.5,126.833 383.5,128.167 383.5,129.5C 395.287,129.43 406.953,129.43 418.5,129.5C 419.354,128.478 420.354,127.645 421.5,127C 419.336,126.086 417.336,124.919 415.5,123.5C 418.784,122.343 422.118,122.176 425.5,123C 427.513,124.791 427.513,126.125 425.5,127C 427.791,131.212 428.124,135.712 426.5,140.5C 427.118,150.315 427.785,159.982 428.5,169.5 Z"/></g>
<g><path style="opacity:1" fill="#040144" d="M 425.5,120.5 C 427.415,120.216 429.081,120.549 430.5,121.5C 428.566,137.329 427.899,153.329 428.5,169.5C 427.785,159.982 427.118,150.315 426.5,140.5C 428.124,135.712 427.791,131.212 425.5,127C 427.513,126.125 427.513,124.791 425.5,123C 422.118,122.176 418.784,122.343 415.5,123.5C 417.336,124.919 419.336,126.086 421.5,127C 420.354,127.645 419.354,128.478 418.5,129.5C 406.953,129.43 395.287,129.43 383.5,129.5C 383.5,128.167 383.5,126.833 383.5,125.5C 391.501,126.093 399.501,126.759 407.5,127.5C 409.833,127.167 412.167,126.833 414.5,126.5C 414.333,126.167 414.167,125.833 414,125.5C 412.333,125.833 410.667,126.167 409,126.5C 405.924,125.712 402.758,125.212 399.5,125C 399.957,124.586 400.291,124.086 400.5,123.5C 389.854,122.501 379.187,122.168 368.5,122.5C 367.862,124.46 367.862,126.293 368.5,128C 366.224,130.142 364.89,132.809 364.5,136C 365.791,138.518 365.458,140.851 363.5,143C 363.833,143.5 364.167,144 364.5,144.5C 365.386,143.675 365.719,142.675 365.5,141.5C 371.537,141.171 377.537,141.504 383.5,142.5C 378.282,143.189 373.116,143.856 368,144.5C 367.828,149.202 367.328,153.868 366.5,158.5C 364.439,158.543 362.272,159.209 360,160.5C 359.091,163.513 358.258,166.513 357.5,169.5C 355.712,169.215 354.045,169.548 352.5,170.5C 348.625,174.603 347.625,173.77 349.5,168C 348.01,166.366 346.676,166.699 345.5,169C 341.909,169.789 338.409,169.622 335,168.5C 333.325,170.773 332.158,173.273 331.5,176C 331.833,176.167 332.167,176.333 332.5,176.5C 333.167,175.167 333.833,173.833 334.5,172.5C 334.833,173.5 335.167,174.5 335.5,175.5C 334.825,178.178 334.158,180.844 333.5,183.5C 332.167,183.5 330.833,183.5 329.5,183.5C 329.66,181.801 329.494,180.134 329,178.5C 325.667,180.5 325.667,182.5 329,184.5C 330.787,190.762 329.121,192.095 324,188.5C 323.601,188.728 323.435,189.062 323.5,189.5C 322.609,188.739 321.942,187.739 321.5,186.5C 322.789,183.231 324.456,180.231 326.5,177.5C 327.123,175.289 328.123,173.289 329.5,171.5C 329.5,171.167 329.5,170.833 329.5,170.5C 331.473,167.861 333.806,165.527 336.5,163.5C 343.377,157.786 348.544,150.786 352,142.5C 354.903,140.454 356.736,137.787 357.5,134.5C 359.167,132.5 360.833,130.5 362.5,128.5C 364.867,127.129 366.533,125.129 367.5,122.5C 368.729,121.719 370.062,121.219 371.5,121C 389.497,120.5 407.497,120.333 425.5,120.5 Z"/></g>
<g><path style="opacity:1" fill="#01004b" d="M 175.5,133.5 C 196.503,133.333 217.503,133.5 238.5,134C 240.493,135.999 242.827,137.499 245.5,138.5C 246.853,139.524 247.52,140.857 247.5,142.5C 246.07,142.421 244.736,142.754 243.5,143.5C 242.86,147.268 241.36,150.602 239,153.5C 238.405,154.899 238.572,156.232 239.5,157.5C 239.192,158.308 238.692,158.975 238,159.5C 235.64,158.842 232.807,158.842 229.5,159.5C 229.5,164.5 229.5,169.5 229.5,174.5C 228.167,174.5 226.833,174.5 225.5,174.5C 225.664,177.187 225.497,179.854 225,182.5C 223.648,180.406 223.148,178.073 223.5,175.5C 222.167,175.5 220.833,175.5 219.5,175.5C 219.237,181.05 219.57,186.55 220.5,192C 219.219,195.044 216.885,196.21 213.5,195.5C 213.879,199.576 212.879,203.243 210.5,206.5C 209.833,203.833 209.167,201.167 208.5,198.5C 205.109,202.263 202.443,206.597 200.5,211.5C 199.575,210.359 198.741,210.359 198,211.5C 195.857,205.024 195.024,198.358 195.5,191.5C 193.255,193.361 190.588,194.361 187.5,194.5C 187.5,193.5 187.5,192.5 187.5,191.5C 184.762,190.965 182.928,191.965 182,194.5C 181.311,193.643 180.478,192.977 179.5,192.5C 177.997,192.835 176.664,192.835 175.5,192.5C 177.396,191.534 179.396,191.201 181.5,191.5C 181.5,186.167 181.5,180.833 181.5,175.5C 177.422,175.152 173.588,175.819 170,177.5C 169.167,177.167 168.333,176.833 167.5,176.5C 169.455,163.68 170.122,150.68 169.5,137.5C 172.554,137.646 174.554,136.313 175.5,133.5 Z"/></g>
<g><path style="opacity:1" fill="#541921" d="M 273.5,127.5 C 273.833,127.5 274.167,127.5 274.5,127.5C 272.6,131.633 270.433,135.633 268,139.5C 266.961,140.71 265.794,141.71 264.5,142.5C 266.76,138.224 268.927,133.89 271,129.5C 271.708,128.619 272.542,127.953 273.5,127.5 Z"/></g>
<g><path style="opacity:1" fill="#b64c27" d="M 360.5,127.5 C 359.227,129.713 358.227,132.046 357.5,134.5C 352.24,141.767 346.573,148.767 340.5,155.5C 341.44,152.286 342.94,149.286 345,146.5C 348.223,145.277 349.889,142.944 350,139.5C 354.365,137.116 357.032,133.449 358,128.5C 358.671,127.748 359.504,127.414 360.5,127.5 Z"/></g>
<g><path style="opacity:1" fill="#2d0628" d="M 357.5,134.5 C 356.736,137.787 354.903,140.454 352,142.5C 348.544,150.786 343.377,157.786 336.5,163.5C 337.399,160.605 338.733,157.938 340.5,155.5C 346.573,148.767 352.24,141.767 357.5,134.5 Z"/></g>
<g><path style="opacity:1" fill="#642126" d="M 261.5,147.5 C 259.188,151.798 256.521,155.798 253.5,159.5C 254.956,154.707 257.623,150.707 261.5,147.5 Z"/></g>
<g><path style="opacity:1" fill="#c75124" d="M 340.5,155.5 C 338.733,157.938 337.399,160.605 336.5,163.5C 333.806,165.527 331.473,167.861 329.5,170.5C 330.929,167.692 331.595,164.692 331.5,161.5C 332.822,161.33 333.989,161.663 335,162.5C 336,160.5 337,158.5 338,156.5C 338.671,155.748 339.504,155.414 340.5,155.5 Z"/></g>
<g><path style="opacity:1" fill="#8e3c2b" d="M 253.5,159.5 C 253.658,162.522 252.325,164.522 249.5,165.5C 250.449,163.223 251.782,161.223 253.5,159.5 Z"/></g>
<g><path style="opacity:1" fill="#13023a" d="M 428.5,170.5 C 417.5,171.833 406.5,173.167 395.5,174.5C 394.167,188.167 394.167,201.833 395.5,215.5C 395.5,215.833 395.5,216.167 395.5,216.5C 395.5,216.833 395.5,217.167 395.5,217.5C 394.5,217.5 393.5,217.5 392.5,217.5C 390.735,204.221 389.902,190.887 390,177.5C 390.667,176.167 391.333,176.167 392,177.5C 392.49,176.207 392.657,174.873 392.5,173.5C 389.927,173.148 387.594,173.648 385.5,175C 386.417,177.548 386.084,180.048 384.5,182.5C 383.345,179.554 383.179,176.554 384,173.5C 387.029,168.044 391.196,167.211 396.5,171C 407.243,171.808 417.91,171.642 428.5,170.5 Z"/></g>
<g><path style="opacity:1" fill="#a6402a" d="M 249.5,165.5 C 249.151,169.53 247.151,172.53 243.5,174.5C 243.557,173.391 243.89,172.391 244.5,171.5C 245.818,169.249 247.484,167.249 249.5,165.5 Z"/></g>
<g><path style="opacity:0.851" fill="#db6733" d="M 93.5,169.5 C 105.172,169.166 116.505,170.5 127.5,173.5C 118.328,172.972 109.162,172.305 100,171.5C 97.3897,171.467 95.223,170.8 93.5,169.5 Z"/></g>
<g><path style="opacity:1" fill="#0d0736" d="M 430.5,121.5 C 431.167,136.833 431.833,152.167 432.5,167.5C 432.634,169.292 432.301,170.958 431.5,172.5C 420.167,173.167 408.833,173.833 397.5,174.5C 396.833,174.5 396.167,174.5 395.5,174.5C 406.5,173.167 417.5,171.833 428.5,170.5C 428.5,170.167 428.5,169.833 428.5,169.5C 427.899,153.329 428.566,137.329 430.5,121.5 Z"/></g>
<g><path style="opacity:1" fill="#350820" d="M 431.5,172.5 C 432.338,172.842 432.672,173.508 432.5,174.5C 432.167,174.5 431.833,174.5 431.5,174.5C 420.167,174.5 408.833,174.5 397.5,174.5C 408.833,173.833 420.167,173.167 431.5,172.5 Z"/></g>
<g><path style="opacity:0.047" fill="#d58152" d="M 434.5,174.5 C 450.995,173.338 467.662,173.172 484.5,174C 485.416,174.278 486.082,174.778 486.5,175.5C 469.201,174.542 451.868,174.208 434.5,174.5 Z"/></g>
<g><path style="opacity:0.361" fill="#d26837" d="M 92.5,170.5 C 83.6457,171.956 74.6457,173.956 65.5,176.5C 73.9434,172.476 82.9434,170.476 92.5,170.5 Z"/></g>
<g><path style="opacity:0.588" fill="#da713c" d="M 127.5,173.5 C 133.314,174.415 138.647,176.415 143.5,179.5C 138.993,178.791 134.66,177.624 130.5,176C 129.058,175.623 128.058,174.79 127.5,173.5 Z"/></g>
<g><path style="opacity:1" fill="#23062d" d="M 244.5,171.5 C 243.89,172.391 243.557,173.391 243.5,174.5C 242.094,174.973 241.427,175.973 241.5,177.5C 238.395,180.275 236.062,183.608 234.5,187.5C 233.024,190.583 231.357,193.583 229.5,196.5C 225.849,198.47 223.849,201.47 223.5,205.5C 221.413,206.585 220.08,208.251 219.5,210.5C 218.214,213.117 216.547,215.45 214.5,217.5C 213.527,219.139 212.194,220.473 210.5,221.5C 211.167,219.5 211.833,217.5 212.5,215.5C 213.675,215.719 214.675,215.386 215.5,214.5C 217.953,207.756 220.953,201.423 224.5,195.5C 225.833,195.5 227.167,195.5 228.5,195.5C 231.044,189.76 233.878,184.094 237,178.5C 239.254,175.746 241.754,173.413 244.5,171.5 Z"/></g>
<g><path style="opacity:1" fill="#913a25" d="M 329.5,171.5 C 328.123,173.289 327.123,175.289 326.5,177.5C 324.537,178.96 322.704,180.627 321,182.5C 317.453,188.113 313.62,193.446 309.5,198.5C 312.741,191.029 317.241,184.363 323,178.5C 323.483,177.552 323.649,176.552 323.5,175.5C 324.5,175.5 325.5,175.5 326.5,175.5C 326.088,173.027 327.088,171.694 329.5,171.5 Z"/></g>
<g><path style="opacity:1" fill="#f55604" d="M 431.5,176.5 C 449.5,176.5 467.5,176.5 485.5,176.5C 485.5,239.833 485.5,303.167 485.5,366.5C 468.167,366.5 450.833,366.5 433.5,366.5C 433.832,315.997 433.499,265.664 432.5,215.5C 431.833,215.5 431.167,215.5 430.5,215.5C 419.309,214.77 407.976,214.103 396.5,213.5C 396.5,201.167 396.5,188.833 396.5,176.5C 408.167,176.5 419.833,176.5 431.5,176.5 Z"/></g>
<g><path style="opacity:1" fill="#6d2421" d="M 241.5,177.5 C 239.938,181.392 237.605,184.725 234.5,187.5C 236.062,183.608 238.395,180.275 241.5,177.5 Z"/></g>
<g><path style="opacity:1" fill="#d85922" d="M 431.5,175.5 C 431.5,175.833 431.5,176.167 431.5,176.5C 419.833,176.5 408.167,176.5 396.5,176.5C 396.5,188.833 396.5,201.167 396.5,213.5C 407.976,214.103 419.309,214.77 430.5,215.5C 418.833,215.5 407.167,215.5 395.5,215.5C 395.5,202.167 395.5,188.833 395.5,175.5C 407.5,175.5 419.5,175.5 431.5,175.5 Z"/></g>
<g><path style="opacity:1" fill="#da5620" d="M 243.5,174.5 C 242.582,178.934 240.915,183.101 238.5,187C 238.833,188 239.167,189 239.5,190C 238.576,191.811 237.743,191.645 237,189.5C 234.494,191.867 231.994,194.201 229.5,196.5C 231.357,193.583 233.024,190.583 234.5,187.5C 237.605,184.725 239.938,181.392 241.5,177.5C 241.427,175.973 242.094,174.973 243.5,174.5 Z"/></g>
<g><path style="opacity:1" fill="#87372c" d="M 395.5,174.5 C 396.167,174.5 396.833,174.5 397.5,174.5C 408.833,174.5 420.167,174.5 431.5,174.5C 431.5,174.833 431.5,175.167 431.5,175.5C 419.5,175.5 407.5,175.5 395.5,175.5C 395.5,188.833 395.5,202.167 395.5,215.5C 394.167,201.833 394.167,188.167 395.5,174.5 Z"/></g>
<g><path style="opacity:1" fill="#993a23" d="M 158.5,188.5 C 160.5,189.5 162.5,190.5 164.5,191.5C 165.833,193.167 167.167,194.833 168.5,196.5C 164.388,194.781 161.055,192.114 158.5,188.5 Z"/></g>
<g><path style="opacity:1" fill="#34081b" d="M 164.5,191.5 C 169.167,194.167 172.833,197.833 175.5,202.5C 173.833,201.167 172.167,199.833 170.5,198.5C 170.167,197.5 169.5,196.833 168.5,196.5C 167.167,194.833 165.833,193.167 164.5,191.5 Z"/></g>
<g><path style="opacity:0.271" fill="#d66434" d="M 40.5,190.5 C 35.2286,195.269 30.062,200.269 25,205.5C 24.6012,205.272 24.4346,204.938 24.5,204.5C 28.9396,198.722 34.2729,194.055 40.5,190.5 Z"/></g>
<g><path style="opacity:1" fill="#aa4824" d="M 229.5,196.5 C 228.589,200.25 226.589,203.25 223.5,205.5C 223.849,201.47 225.849,198.47 229.5,196.5 Z"/></g>
<g><path style="opacity:1" fill="#1a0332" d="M 326.5,177.5 C 324.456,180.231 322.789,183.231 321.5,186.5C 321.942,187.739 322.609,188.739 323.5,189.5C 323.5,189.833 323.5,190.167 323.5,190.5C 321.293,192.515 318.626,193.515 315.5,193.5C 314.654,196.527 313.32,199.36 311.5,202C 327.437,202.028 342.77,205.028 357.5,211C 359.192,212.307 360.525,213.807 361.5,215.5C 360.833,215.5 360.167,215.5 359.5,215.5C 358.833,214.833 358.167,214.167 357.5,213.5C 354.947,211.416 351.947,210.083 348.5,209.5C 347.833,209.5 347.167,209.5 346.5,209.5C 344.412,207.98 342.078,206.98 339.5,206.5C 329.053,204.767 318.386,204.101 307.5,204.5C 307.604,202.297 308.27,200.297 309.5,198.5C 313.62,193.446 317.453,188.113 321,182.5C 322.704,180.627 324.537,178.96 326.5,177.5 Z"/></g>
<g><path style="opacity:1" fill="#5a1b21" d="M 309.5,198.5 C 308.27,200.297 307.604,202.297 307.5,204.5C 318.386,204.101 329.053,204.767 339.5,206.5C 338.167,206.5 336.833,206.5 335.5,206.5C 325.177,205.403 314.844,205.403 304.5,206.5C 305.011,203.978 306.011,201.645 307.5,199.5C 307.842,198.662 308.508,198.328 309.5,198.5 Z"/></g>
<g><path style="opacity:0.468" fill="#e36024" d="M 431.5,174.5 C 431.833,174.5 432.167,174.5 432.5,174.5C 433.167,174.5 433.833,174.5 434.5,174.5C 451.868,174.208 469.201,174.542 486.5,175.5C 487.833,239.167 487.833,302.833 486.5,366.5C 486.167,366.5 485.833,366.5 485.5,366.5C 485.5,303.167 485.5,239.833 485.5,176.5C 467.5,176.5 449.5,176.5 431.5,176.5C 431.5,176.167 431.5,175.833 431.5,175.5C 431.5,175.167 431.5,174.833 431.5,174.5 Z"/></g>
<g><path style="opacity:1" fill="#92392a" d="M 170.5,198.5 C 172.167,199.833 173.833,201.167 175.5,202.5C 177.5,204.833 179.5,207.167 181.5,209.5C 181.5,209.833 181.5,210.167 181.5,210.5C 177.102,207.105 173.436,203.105 170.5,198.5 Z"/></g>
<g><path style="opacity:1" fill="#da5a1f" d="M 307.5,199.5 C 306.011,201.645 305.011,203.978 304.5,206.5C 314.844,205.403 325.177,205.403 335.5,206.5C 338.799,208.483 342.466,209.483 346.5,209.5C 347.167,209.5 347.833,209.5 348.5,209.5C 350.64,212.613 353.64,213.946 357.5,213.5C 358.167,214.167 358.833,214.833 359.5,215.5C 357.473,215.662 355.473,215.495 353.5,215C 348.516,211.832 343.183,209.832 337.5,209C 326.186,207.334 314.853,207.001 303.5,208C 303.045,205.688 302.045,203.688 300.5,202C 303.031,201.552 305.364,200.719 307.5,199.5 Z"/></g>
<g><path style="opacity:1" fill="#9b3926" d="M 335.5,206.5 C 336.833,206.5 338.167,206.5 339.5,206.5C 342.078,206.98 344.412,207.98 346.5,209.5C 342.466,209.483 338.799,208.483 335.5,206.5 Z"/></g>
<g><path style="opacity:1" fill="#8e3b30" d="M 223.5,205.5 C 222.92,207.749 221.587,209.415 219.5,210.5C 220.08,208.251 221.413,206.585 223.5,205.5 Z"/></g>
<g><path style="opacity:1" fill="#9c3e23" d="M 348.5,209.5 C 351.947,210.083 354.947,211.416 357.5,213.5C 353.64,213.946 350.64,212.613 348.5,209.5 Z"/></g>
<g><path style="opacity:1" fill="#9b4028" d="M 361.5,215.5 C 365.02,216.353 367.687,218.353 369.5,221.5C 366.039,220.449 363.373,218.449 361.5,215.5 Z"/></g>
<g><path style="opacity:1" fill="#030145" d="M 399.5,218.5 C 409.167,218.5 418.833,218.5 428.5,218.5C 428.5,219.833 428.5,221.167 428.5,222.5C 426.59,221.906 424.59,221.573 422.5,221.5C 418.22,222.471 413.887,223.137 409.5,223.5C 410.995,231.002 407.995,234.335 400.5,233.5C 400.181,235.75 400.681,237.75 402,239.5C 404.288,239.263 406.788,239.263 409.5,239.5C 409.5,241.5 409.5,243.5 409.5,245.5C 412.167,246.167 414.833,246.833 417.5,247.5C 417.125,244.603 417.625,241.937 419,239.5C 419.667,255.167 419.667,270.833 419,286.5C 418.308,287.025 417.808,287.692 417.5,288.5C 418.189,290.444 418.689,292.444 419,294.5C 419.167,303.833 419.333,313.167 419.5,322.5C 419.676,336.673 419.009,350.507 417.5,364C 417.667,364.5 417.833,365 418,365.5C 419.397,364.774 420.231,363.607 420.5,362C 423.114,345.116 423.114,328.283 420.5,311.5C 420.435,308.375 420.935,305.375 422,302.5C 423.321,321.017 423.987,339.684 424,358.5C 425.117,359.949 425.784,361.616 426,363.5C 427.202,361.323 427.702,358.989 427.5,356.5C 427.998,374.165 428.665,391.998 429.5,410C 429.043,410.414 428.709,410.914 428.5,411.5C 397.486,412.795 366.486,412.795 335.5,411.5C 335.5,410.5 335.5,409.5 335.5,408.5C 338.278,407.032 341.278,406.199 344.5,406C 345.71,404.961 346.71,403.794 347.5,402.5C 356.102,400.133 363.602,395.8 370,389.5C 370.741,390.641 371.575,390.641 372.5,389.5C 374.687,387.15 377.187,385.15 380,383.5C 381.879,381.129 383.045,378.462 383.5,375.5C 386.179,375.327 388.513,374.327 390.5,372.5C 393.69,365.601 396.69,358.601 399.5,351.5C 401.074,349.898 401.741,347.898 401.5,345.5C 402.401,344.71 403.068,343.71 403.5,342.5C 404.496,342.586 405.329,342.252 406,341.5C 406.338,336.453 407.005,331.453 408,326.5C 408.419,325.328 409.085,324.328 410,323.5C 412.136,312.977 411.97,302.644 409.5,292.5C 409.666,288.154 409.499,283.821 409,279.5C 406.54,273.33 404.54,266.997 403,260.5C 402.578,258.574 401.411,257.574 399.5,257.5C 398.878,255.878 397.878,254.545 396.5,253.5C 396.657,252.127 396.49,250.793 396,249.5C 393.642,246.778 391.809,243.778 390.5,240.5C 389.569,236.571 387.236,233.905 383.5,232.5C 380.105,228.102 376.105,224.436 371.5,221.5C 370.833,221.5 370.167,221.5 369.5,221.5C 367.687,218.353 365.02,216.353 361.5,215.5C 360.525,213.807 359.192,212.307 357.5,211C 342.77,205.028 327.437,202.028 311.5,202C 313.32,199.36 314.654,196.527 315.5,193.5C 318.626,193.515 321.293,192.515 323.5,190.5C 326.375,192.523 329.541,194.19 333,195.5C 335.248,194.045 337.748,193.212 340.5,193C 340.133,191.243 340.966,189.743 343,188.5C 343.483,189.448 343.649,190.448 343.5,191.5C 349.48,191.706 355.48,192.04 361.5,192.5C 359.657,194.605 357.324,195.772 354.5,196C 355.337,197.011 355.67,198.178 355.5,199.5C 360.794,199.682 360.794,200.182 355.5,201C 359.454,202.154 363.454,202.987 367.5,203.5C 367.307,206.308 366.64,208.975 365.5,211.5C 366.675,211.281 367.675,211.614 368.5,212.5C 367.355,213.891 367.355,215.224 368.5,216.5C 369.386,215.675 369.719,214.675 369.5,213.5C 371.5,213.5 373.5,213.5 375.5,213.5C 375.5,214.5 375.5,215.5 375.5,216.5C 376.552,216.649 377.552,216.483 378.5,216C 377.396,214.869 377.729,214.035 379.5,213.5C 380.871,217.426 379.537,220.093 375.5,221.5C 379.754,227.188 381.42,226.854 380.5,220.5C 381.5,220.5 382.5,220.5 383.5,220.5C 383.297,222.39 383.963,223.89 385.5,225C 382.646,229.456 383.98,231.956 389.5,232.5C 389.423,228.785 389.756,225.119 390.5,221.5C 393.518,221.665 396.518,221.498 399.5,221C 400.598,220.23 400.598,219.397 399.5,218.5 Z"/></g>
<g><path style="opacity:1" fill="#8c331c" d="M 109.5,221.5 C 102.132,221.317 94.7985,221.65 87.5,222.5C 88.2625,221.732 89.2625,221.232 90.5,221C 97.0137,220.18 103.347,220.347 109.5,221.5 Z"/></g>
<g><path style="opacity:1" fill="#010149" d="M 428.5,222.5 C 429.494,265.094 429.828,307.761 429.5,350.5C 427.72,351.99 427.054,353.99 427.5,356.5C 427.702,358.989 427.202,361.323 426,363.5C 425.784,361.616 425.117,359.949 424,358.5C 423.987,339.684 423.321,321.017 422,302.5C 420.935,305.375 420.435,308.375 420.5,311.5C 423.114,328.283 423.114,345.116 420.5,362C 420.231,363.607 419.397,364.774 418,365.5C 417.833,365 417.667,364.5 417.5,364C 419.009,350.507 419.676,336.673 419.5,322.5C 419.333,313.167 419.167,303.833 419,294.5C 418.689,292.444 418.189,290.444 417.5,288.5C 417.808,287.692 418.308,287.025 419,286.5C 419.667,270.833 419.667,255.167 419,239.5C 417.625,241.937 417.125,244.603 417.5,247.5C 414.833,246.833 412.167,246.167 409.5,245.5C 409.5,243.5 409.5,241.5 409.5,239.5C 406.788,239.263 404.288,239.263 402,239.5C 400.681,237.75 400.181,235.75 400.5,233.5C 407.995,234.335 410.995,231.002 409.5,223.5C 413.887,223.137 418.22,222.471 422.5,221.5C 424.59,221.573 426.59,221.906 428.5,222.5 Z"/></g>
<g><path style="opacity:1" fill="#23062c" d="M 109.5,221.5 C 112.01,221.927 114.343,222.593 116.5,223.5C 118.072,224.687 119.739,225.687 121.5,226.5C 114.619,224.993 107.619,223.993 100.5,223.5C 92.2742,223.786 84.2742,225.119 76.5,227.5C 76.8333,226.833 77.1667,226.167 77.5,225.5C 80.9364,224.808 84.2698,223.808 87.5,222.5C 94.7985,221.65 102.132,221.317 109.5,221.5 Z"/></g>
<g><path style="opacity:1" fill="#7e3021" d="M 116.5,223.5 C 119.491,223.166 121.824,224.166 123.5,226.5C 122.833,226.5 122.167,226.5 121.5,226.5C 119.739,225.687 118.072,224.687 116.5,223.5 Z"/></g>
<g><path style="opacity:1" fill="#672221" d="M 371.5,221.5 C 376.105,224.436 380.105,228.102 383.5,232.5C 383.5,232.833 383.5,233.167 383.5,233.5C 379.167,229.833 375.167,225.833 371.5,221.5 Z"/></g>
<g><path style="opacity:1" fill="#a14327" d="M 395.5,216.5 C 395.5,216.167 395.5,215.833 395.5,215.5C 407.167,215.5 418.833,215.5 430.5,215.5C 431.167,215.5 431.833,215.5 432.5,215.5C 432.5,266.167 432.5,316.833 432.5,367.5C 450.167,367.5 467.833,367.5 485.5,367.5C 467.833,368.167 450.167,368.833 432.5,369.5C 431.662,369.158 431.328,368.492 431.5,367.5C 431.5,317.167 431.5,266.833 431.5,216.5C 419.5,216.5 407.5,216.5 395.5,216.5 Z"/></g>
<g><path style="opacity:1" fill="#24072c" d="M 181.5,210.5 C 181.5,210.167 181.5,209.833 181.5,209.5C 183.09,209.628 184.423,210.295 185.5,211.5C 187.344,213.982 188.677,216.649 189.5,219.5C 190.5,219.5 191.5,219.5 192.5,219.5C 192.192,221.924 192.526,224.257 193.5,226.5C 196.022,229.729 197.689,233.395 198.5,237.5C 198.957,238.298 199.624,238.631 200.5,238.5C 200.189,239.478 199.522,240.145 198.5,240.5C 197.141,239.376 196.141,238.042 195.5,236.5C 195.657,235.127 195.49,233.793 195,232.5C 192.345,228.644 190.178,224.644 188.5,220.5C 186.167,217.167 183.833,213.833 181.5,210.5 Z"/></g>
<g><path style="opacity:1" fill="#01004b" d="M 144.5,292.5 C 143.417,292.461 142.417,292.127 141.5,291.5C 140.83,293.291 140.163,294.958 139.5,296.5C 136.854,294.521 134.521,292.188 132.5,289.5C 128.8,293.901 126.633,293.235 126,287.5C 121.473,290.989 120.473,295.323 123,300.5C 125.484,301.699 125.65,303.532 123.5,306C 122.5,306.667 121.5,306.667 120.5,306C 111.831,296.834 106.498,298.667 104.5,311.5C 103.459,309.009 102.626,309.009 102,311.5C 100.86,308.898 100.027,306.231 99.5,303.5C 96.5,303.833 95.1667,302.5 95.5,299.5C 87.4723,299.831 79.4723,299.498 71.5,298.5C 70.9747,297.808 70.3081,297.308 69.5,297C 70.2739,291.87 71.6073,286.703 73.5,281.5C 70.3356,281.442 67.3356,280.776 64.5,279.5C 64.7778,281.346 64.1112,282.68 62.5,283.5C 61.3372,278.198 61.1705,272.864 62,267.5C 65.467,266.202 68.967,264.869 72.5,263.5C 73.1667,255.833 73.8333,248.167 74.5,240.5C 76.8022,239.001 76.4689,237.668 73.5,236.5C 74.3202,234.889 75.6536,234.222 77.5,234.5C 77.5608,237.05 78.8941,238.55 81.5,239C 85.5292,240.913 89.5292,240.913 93.5,239C 91.1667,238 88.8333,237 86.5,236C 90.0284,235.911 93.3618,235.244 96.5,234C 94.5,233.667 92.5,233.333 90.5,233C 91.3366,231.989 91.67,230.822 91.5,229.5C 97.7351,230.843 104.068,231.676 110.5,232C 111,232.5 111.5,233 112,233.5C 114.312,231.536 116.812,231.203 119.5,232.5C 118.332,234.217 116.665,234.884 114.5,234.5C 116.383,238.625 118.05,242.958 119.5,247.5C 123.123,248.026 126.123,249.693 128.5,252.5C 129.494,247.544 129.827,242.544 129.5,237.5C 132.278,237.022 134.278,238.022 135.5,240.5C 133.42,243.879 133.087,247.379 134.5,251C 133.421,251.956 132.255,252.789 131,253.5C 130.333,254.5 130.333,255.5 131,256.5C 132.916,259.311 135.083,261.977 137.5,264.5C 138.689,265.429 140.022,265.762 141.5,265.5C 141.045,274.705 142.045,283.705 144.5,292.5 Z"/></g>
<g><path style="opacity:1" fill="#853222" d="M 123.5,226.5 C 129.153,227.47 133.486,230.47 136.5,235.5C 131.782,233.041 127.449,230.041 123.5,226.5 Z"/></g>
<g><path style="opacity:1" fill="#a84725" d="M 188.5,220.5 C 190.178,224.644 192.345,228.644 195,232.5C 195.49,233.793 195.657,235.127 195.5,236.5C 191.577,231.976 189.243,226.643 188.5,220.5 Z"/></g>
<g><path style="opacity:1" fill="#aa4724" d="M 214.5,217.5 C 212.539,220.861 211.039,224.528 210,228.5C 208.871,230.141 207.371,231.141 205.5,231.5C 207.167,228.167 208.833,224.833 210.5,221.5C 212.194,220.473 213.527,219.139 214.5,217.5 Z"/></g>
<g><path style="opacity:1" fill="#2c0521" d="M 383.5,233.5 C 383.5,233.167 383.5,232.833 383.5,232.5C 387.236,233.905 389.569,236.571 390.5,240.5C 389.5,239.833 388.5,239.167 387.5,238.5C 386.92,236.251 385.587,234.585 383.5,233.5 Z"/></g>
<g><path style="opacity:1" fill="#d8571d" d="M 432.5,215.5 C 433.499,265.664 433.832,315.997 433.5,366.5C 450.833,366.5 468.167,366.5 485.5,366.5C 485.833,366.5 486.167,366.5 486.5,366.5C 486.5,367.167 486.167,367.5 485.5,367.5C 467.833,367.5 450.167,367.5 432.5,367.5C 432.5,316.833 432.5,266.167 432.5,215.5 Z"/></g>
<g><path style="opacity:1" fill="#893624" d="M 77.5,225.5 C 77.1667,226.167 76.8333,226.833 76.5,227.5C 72.088,230.304 68.088,233.638 64.5,237.5C 64.1667,237.5 63.8333,237.5 63.5,237.5C 65.1007,234.23 67.4341,231.563 70.5,229.5C 72.3999,227.384 74.7332,226.051 77.5,225.5 Z"/></g>
<g><path style="opacity:1" fill="#260624" d="M 76.5,227.5 C 73.3813,231.957 69.3813,235.291 64.5,237.5C 68.088,233.638 72.088,230.304 76.5,227.5 Z"/></g>
<g><path style="opacity:1" fill="#933827" d="M 383.5,233.5 C 385.587,234.585 386.92,236.251 387.5,238.5C 385.413,237.415 384.08,235.749 383.5,233.5 Z"/></g>
<g><path style="opacity:1" fill="#852e1e" d="M 205.5,231.5 C 204.291,235.297 202.791,238.964 201,242.5C 199.644,243.38 198.144,243.714 196.5,243.5C 196.007,241.194 195.674,238.861 195.5,236.5C 196.141,238.042 197.141,239.376 198.5,240.5C 199.522,240.145 200.189,239.478 200.5,238.5C 201.815,235.862 203.482,233.528 205.5,231.5 Z"/></g>
<g><path style="opacity:1" fill="#13002d" d="M 395.5,217.5 C 407.167,217.5 418.833,217.5 430.5,217.5C 430.5,263.5 430.5,309.5 430.5,355.5C 429.549,354.081 429.216,352.415 429.5,350.5C 429.828,307.761 429.494,265.094 428.5,222.5C 428.5,221.167 428.5,219.833 428.5,218.5C 418.833,218.5 409.167,218.5 399.5,218.5C 397.901,218.768 396.568,218.434 395.5,217.5 Z"/></g>
<g><path style="opacity:1" fill="#db561b" d="M 148.5,291.5 C 148.833,290.167 149.167,288.833 149.5,287.5C 149.5,285.167 149.5,282.833 149.5,280.5C 151.03,277.305 151.696,273.805 151.5,270C 151.696,266.195 151.03,262.695 149.5,259.5C 149.794,255.433 148.46,252.1 145.5,249.5C 145.5,248.833 145.5,248.167 145.5,247.5C 144.937,244.705 143.604,242.372 141.5,240.5C 143.17,240.751 144.67,241.418 146,242.5C 149.123,238.71 149.956,239.377 148.5,244.5C 150.063,249.063 151.23,253.73 152,258.5C 152.273,268.756 152.44,278.923 152.5,289C 151.264,290.085 149.931,290.918 148.5,291.5 Z"/></g>
<g><path style="opacity:1" fill="#2f0822" d="M 63.5,237.5 C 63.8333,237.5 64.1667,237.5 64.5,237.5C 61.1289,242.526 57.7956,247.526 54.5,252.5C 56.253,247.956 58.5863,243.622 61.5,239.5C 61.8333,238.5 62.5,237.833 63.5,237.5 Z"/></g>
<g><path style="opacity:1" fill="#67201a" d="M 139.5,239.5 C 140.167,239.833 140.833,240.167 141.5,240.5C 143.604,242.372 144.937,244.705 145.5,247.5C 143.186,245.17 141.186,242.504 139.5,239.5 Z"/></g>
<g><path style="opacity:1" fill="#ad462c" d="M 387.5,238.5 C 388.5,239.167 389.5,239.833 390.5,240.5C 391.809,243.778 393.642,246.778 396,249.5C 396.49,250.793 396.657,252.127 396.5,253.5C 392.283,249.271 389.283,244.271 387.5,238.5 Z"/></g>
<g><path style="opacity:1" fill="#b54a26" d="M 61.5,239.5 C 58.5863,243.622 56.253,247.956 54.5,252.5C 53.1667,255.833 51.8333,259.167 50.5,262.5C 50.1896,252.791 53.8563,245.125 61.5,239.5 Z"/></g>
<g><path style="opacity:0.686" fill="#d6571e" d="M 9.5,228.5 C 8.91233,233.532 8.079,238.532 7,243.5C 3.66017,248.9 1.9935,254.9 2,261.5C 1.62325,262.942 0.789915,263.942 -0.5,264.5C -0.5,263.833 -0.5,263.167 -0.5,262.5C 0.44338,256.272 1.61005,249.938 3,243.5C 4.68478,238.146 6.85145,233.146 9.5,228.5 Z"/></g>
<g><path style="opacity:1" fill="#451420" d="M 145.5,249.5 C 148.46,252.1 149.794,255.433 149.5,259.5C 148.833,258.5 148.167,257.5 147.5,256.5C 146.067,254.442 145.4,252.108 145.5,249.5 Z"/></g>
<g><path style="opacity:1" fill="#2a072a" d="M 54.5,252.5 C 53.9416,258.676 53.2749,264.843 52.5,271C 53.0881,277.182 53.7548,283.349 54.5,289.5C 51.1402,282.315 49.8068,274.648 50.5,266.5C 50.5,265.167 50.5,263.833 50.5,262.5C 51.8333,259.167 53.1667,255.833 54.5,252.5 Z"/></g>
<g><path style="opacity:1" fill="#18022e" d="M 147.5,256.5 C 148.167,257.5 148.833,258.5 149.5,259.5C 150.833,266.5 150.833,273.5 149.5,280.5C 149.5,282.833 149.5,285.167 149.5,287.5C 148.833,287.5 148.167,287.5 147.5,287.5C 148.678,277.157 148.678,266.824 147.5,256.5 Z"/></g>
<g><path style="opacity:1" fill="#5c1a24" d="M 149.5,259.5 C 151.03,262.695 151.696,266.195 151.5,270C 151.696,273.805 151.03,277.305 149.5,280.5C 150.833,273.5 150.833,266.5 149.5,259.5 Z"/></g>
<g><path style="opacity:1" fill="#792a1f" d="M 313.5,275.5 C 304.403,272.61 295.07,271.776 285.5,273C 282.719,273.522 280.385,274.689 278.5,276.5C 277.5,276.833 276.833,277.5 276.5,278.5C 275.167,278.833 273.833,279.167 272.5,279.5C 281.167,271.343 291.5,268.51 303.5,271C 307.301,271.739 310.634,273.239 313.5,275.5 Z"/></g>
<g><path style="opacity:1" fill="#030045" d="M 121.5,226.5 C 122.167,226.5 122.833,226.5 123.5,226.5C 127.449,230.041 131.782,233.041 136.5,235.5C 138.262,236.262 139.262,237.596 139.5,239.5C 141.186,242.504 143.186,245.17 145.5,247.5C 145.5,248.167 145.5,248.833 145.5,249.5C 145.4,252.108 146.067,254.442 147.5,256.5C 148.678,266.824 148.678,277.157 147.5,287.5C 146.065,288.913 145.065,290.58 144.5,292.5C 142.045,283.705 141.045,274.705 141.5,265.5C 140.022,265.762 138.689,265.429 137.5,264.5C 135.083,261.977 132.916,259.311 131,256.5C 130.333,255.5 130.333,254.5 131,253.5C 132.255,252.789 133.421,251.956 134.5,251C 133.087,247.379 133.42,243.879 135.5,240.5C 134.278,238.022 132.278,237.022 129.5,237.5C 129.827,242.544 129.494,247.544 128.5,252.5C 126.123,249.693 123.123,248.026 119.5,247.5C 118.05,242.958 116.383,238.625 114.5,234.5C 116.665,234.884 118.332,234.217 119.5,232.5C 116.812,231.203 114.312,231.536 112,233.5C 111.5,233 111,232.5 110.5,232C 104.068,231.676 97.7351,230.843 91.5,229.5C 91.67,230.822 91.3366,231.989 90.5,233C 92.5,233.333 94.5,233.667 96.5,234C 93.3618,235.244 90.0284,235.911 86.5,236C 88.8333,237 91.1667,238 93.5,239C 89.5292,240.913 85.5292,240.913 81.5,239C 78.8941,238.55 77.5608,237.05 77.5,234.5C 75.6536,234.222 74.3202,234.889 73.5,236.5C 76.4689,237.668 76.8022,239.001 74.5,240.5C 73.8333,248.167 73.1667,255.833 72.5,263.5C 68.967,264.869 65.467,266.202 62,267.5C 61.1705,272.864 61.3372,278.198 62.5,283.5C 64.1112,282.68 64.7778,281.346 64.5,279.5C 67.3356,280.776 70.3356,281.442 73.5,281.5C 71.6073,286.703 70.2739,291.87 69.5,297C 70.3081,297.308 70.9747,297.808 71.5,298.5C 79.4723,299.498 87.4723,299.831 95.5,299.5C 95.1667,302.5 96.5,303.833 99.5,303.5C 100.027,306.231 100.86,308.898 102,311.5C 102.626,309.009 103.459,309.009 104.5,311.5C 106.498,298.667 111.831,296.834 120.5,306C 121.5,306.667 122.5,306.667 123.5,306C 125.65,303.532 125.484,301.699 123,300.5C 120.473,295.323 121.473,290.989 126,287.5C 126.633,293.235 128.8,293.901 132.5,289.5C 134.521,292.188 136.854,294.521 139.5,296.5C 137.833,296.5 136.167,296.5 134.5,296.5C 134.33,297.822 134.663,298.989 135.5,300C 133.884,300.615 132.551,301.615 131.5,303C 129.423,303.192 127.423,303.692 125.5,304.5C 126.242,305.287 127.075,305.953 128,306.5C 129.356,305.62 130.856,305.286 132.5,305.5C 132.649,306.552 132.483,307.552 132,308.5C 130.141,309.579 128.641,310.912 127.5,312.5C 126.016,314.074 124.349,315.407 122.5,316.5C 116.972,317.869 111.305,319.036 105.5,320C 98.805,320.665 92.1384,320.498 85.5,319.5C 84.8333,318.833 84.1667,318.167 83.5,317.5C 81.4582,315.17 78.7916,314.004 75.5,314C 74.0155,310.335 71.3488,308.502 67.5,308.5C 63.3954,305.73 60.3954,302.063 58.5,297.5C 58.4681,294.006 57.1347,291.339 54.5,289.5C 53.7548,283.349 53.0881,277.182 52.5,271C 53.2749,264.843 53.9416,258.676 54.5,252.5C 57.7956,247.526 61.1289,242.526 64.5,237.5C 69.3813,235.291 73.3813,231.957 76.5,227.5C 84.2742,225.119 92.2742,223.786 100.5,223.5C 107.619,223.993 114.619,224.993 121.5,226.5 Z"/></g>
<g><path style="opacity:1" fill="#340b29" d="M 399.5,257.5 C 401.411,257.574 402.578,258.574 403,260.5C 404.54,266.997 406.54,273.33 409,279.5C 409.499,283.821 409.666,288.154 409.5,292.5C 409.825,300.352 409.492,308.018 408.5,315.5C 408.826,306.983 408.493,298.65 407.5,290.5C 406.742,282.052 405.242,273.719 403,265.5C 402.018,262.706 400.851,260.039 399.5,257.5 Z"/></g>
<g><path style="opacity:1" fill="#030045" d="M 308.5,281.5 C 302.137,283.872 295.47,285.038 288.5,285C 289.784,286.297 289.617,287.464 288,288.5C 289.662,298.655 285.495,303.655 275.5,303.5C 275.5,308.833 275.5,314.167 275.5,319.5C 276.833,319.5 278.167,319.5 279.5,319.5C 279.5,321.5 279.5,323.5 279.5,325.5C 283.555,325.176 287.555,325.509 291.5,326.5C 293.26,329.212 293.927,332.212 293.5,335.5C 295.167,335.5 296.833,335.5 298.5,335.5C 298.833,332.167 299.167,328.833 299.5,325.5C 301.492,325.328 303.158,325.995 304.5,327.5C 305.842,325.995 307.508,325.328 309.5,325.5C 309.5,323.5 309.5,321.5 309.5,319.5C 312.807,318.842 315.64,318.842 318,319.5C 318.499,314.177 318.666,308.844 318.5,303.5C 315.5,303.5 312.5,303.5 309.5,303.5C 309.5,302.167 309.5,300.833 309.5,299.5C 307.5,299.5 305.5,299.5 303.5,299.5C 303.5,297.5 303.5,295.5 303.5,293.5C 308.526,292.993 313.526,292.326 318.5,291.5C 318.34,289.801 318.506,288.134 319,286.5C 320.729,286.026 321.895,285.026 322.5,283.5C 324.167,284.833 325.833,286.167 327.5,287.5C 328.906,287.973 329.573,288.973 329.5,290.5C 329.5,291.167 329.5,291.833 329.5,292.5C 332.238,301.864 333.238,311.531 332.5,321.5C 329.587,330.686 324.254,338.019 316.5,343.5C 315.833,343.5 315.167,343.5 314.5,343.5C 312.184,344.16 309.851,344.827 307.5,345.5C 304.787,342.678 302.787,343.178 301.5,347C 294.687,347.871 288.021,347.371 281.5,345.5C 279.5,344.833 277.5,344.167 275.5,343.5C 274.415,341.413 272.749,340.08 270.5,339.5C 268.449,334.707 265.449,330.707 261.5,327.5C 258.903,316.794 258.903,306.127 261.5,295.5C 262.656,293.176 263.656,290.843 264.5,288.5C 268.255,284.733 272.255,281.4 276.5,278.5C 276.833,277.5 277.5,276.833 278.5,276.5C 286.672,274.24 295.005,273.407 303.5,274C 302.672,274.915 301.672,275.581 300.5,276C 301.766,276.309 302.933,276.809 304,277.5C 306.373,275.15 308.873,274.983 311.5,277C 309.899,277.273 308.399,277.773 307,278.5C 306.761,279.788 307.261,280.788 308.5,281.5 Z"/></g>
<g><path style="opacity:1" fill="#a9462a" d="M 50.5,266.5 C 49.8068,274.648 51.1402,282.315 54.5,289.5C 54.5,290.167 54.5,290.833 54.5,291.5C 53.0688,290.097 51.9022,288.431 51,286.5C 50.2045,282.688 49.3712,279.021 48.5,275.5C 48.0679,272.123 48.7345,269.123 50.5,266.5 Z"/></g>
<g><path style="opacity:1" fill="#190235" d="M 313.5,275.5 C 313.833,275.5 314.167,275.5 314.5,275.5C 315.585,277.587 317.251,278.92 319.5,279.5C 320.5,280.833 321.5,282.167 322.5,283.5C 320.565,282.85 318.565,282.517 316.5,282.5C 316.824,279.32 315.49,278.153 312.5,279C 312.957,279.414 313.291,279.914 313.5,280.5C 311.955,281.452 310.288,281.785 308.5,281.5C 307.261,280.788 306.761,279.788 307,278.5C 308.399,277.773 309.899,277.273 311.5,277C 308.873,274.983 306.373,275.15 304,277.5C 302.933,276.809 301.766,276.309 300.5,276C 301.672,275.581 302.672,274.915 303.5,274C 295.005,273.407 286.672,274.24 278.5,276.5C 280.385,274.689 282.719,273.522 285.5,273C 295.07,271.776 304.403,272.61 313.5,275.5 Z"/></g>
<g><path style="opacity:1" fill="#782523" d="M 314.5,275.5 C 316.749,276.08 318.415,277.413 319.5,279.5C 317.251,278.92 315.585,277.587 314.5,275.5 Z"/></g>
<g><path style="opacity:1" fill="#6c2322" d="M 319.5,279.5 C 322.764,281.094 325.431,283.427 327.5,286.5C 327.5,286.833 327.5,287.167 327.5,287.5C 325.833,286.167 324.167,284.833 322.5,283.5C 321.5,282.167 320.5,280.833 319.5,279.5 Z"/></g>
<g><path style="opacity:1" fill="#310a21" d="M 276.5,278.5 C 272.255,281.4 268.255,284.733 264.5,288.5C 266.427,285.233 268.761,282.233 271.5,279.5C 271.833,279.5 272.167,279.5 272.5,279.5C 273.833,279.167 275.167,278.833 276.5,278.5 Z"/></g>
<g><path style="opacity:1" fill="#01004b" d="M 322.5,283.5 C 321.895,285.026 320.729,286.026 319,286.5C 318.506,288.134 318.34,289.801 318.5,291.5C 313.526,292.326 308.526,292.993 303.5,293.5C 303.5,295.5 303.5,297.5 303.5,299.5C 305.5,299.5 307.5,299.5 309.5,299.5C 309.5,300.833 309.5,302.167 309.5,303.5C 312.5,303.5 315.5,303.5 318.5,303.5C 318.666,308.844 318.499,314.177 318,319.5C 315.64,318.842 312.807,318.842 309.5,319.5C 309.5,321.5 309.5,323.5 309.5,325.5C 307.508,325.328 305.842,325.995 304.5,327.5C 303.158,325.995 301.492,325.328 299.5,325.5C 299.167,328.833 298.833,332.167 298.5,335.5C 296.833,335.5 295.167,335.5 293.5,335.5C 293.927,332.212 293.26,329.212 291.5,326.5C 287.555,325.509 283.555,325.176 279.5,325.5C 279.5,323.5 279.5,321.5 279.5,319.5C 278.167,319.5 276.833,319.5 275.5,319.5C 275.5,314.167 275.5,308.833 275.5,303.5C 285.495,303.655 289.662,298.655 288,288.5C 289.617,287.464 289.784,286.297 288.5,285C 295.47,285.038 302.137,283.872 308.5,281.5C 310.288,281.785 311.955,281.452 313.5,280.5C 313.291,279.914 312.957,279.414 312.5,279C 315.49,278.153 316.824,279.32 316.5,282.5C 318.565,282.517 320.565,282.85 322.5,283.5 Z"/></g>
<g><path style="opacity:1" fill="#e65815" d="M 396.5,253.5 C 397.878,254.545 398.878,255.878 399.5,257.5C 400.851,260.039 402.018,262.706 403,265.5C 405.242,273.719 406.742,282.052 407.5,290.5C 408.202,302.814 407.202,314.814 404.5,326.5C 405.333,315.509 405.5,304.509 405,293.5C 404.667,293.167 404.333,292.833 404,292.5C 402.746,296.274 401.246,296.774 399.5,294C 400.894,293.044 401.561,291.711 401.5,290C 399.85,286.986 399.35,283.819 400,280.5C 401.817,282.416 402.984,284.749 403.5,287.5C 403.833,287 404.167,286.5 404.5,286C 403.761,281.873 403.261,277.706 403,273.5C 401.438,270.28 399.604,267.28 397.5,264.5C 396.511,260.893 396.177,257.226 396.5,253.5 Z"/></g>
<g><path style="opacity:1" fill="#cb5529" d="M 327.5,287.5 C 327.5,287.167 327.5,286.833 327.5,286.5C 330.091,287.254 331.924,288.921 333,291.5C 334.154,295.447 334.987,299.447 335.5,303.5C 335.167,303.5 334.833,303.5 334.5,303.5C 333.833,301.167 333.167,298.833 332.5,296.5C 332.975,293.687 331.975,291.687 329.5,290.5C 329.573,288.973 328.906,287.973 327.5,287.5 Z"/></g>
<g><path style="opacity:1" fill="#2c0924" d="M 54.5,289.5 C 57.1347,291.339 58.4681,294.006 58.5,297.5C 56.6736,295.853 55.3403,293.853 54.5,291.5C 54.5,290.833 54.5,290.167 54.5,289.5 Z"/></g>
<g><path style="opacity:1" fill="#d8551d" d="M 48.5,275.5 C 49.3712,279.021 50.2045,282.688 51,286.5C 51.9022,288.431 53.0688,290.097 54.5,291.5C 55.3403,293.853 56.6736,295.853 58.5,297.5C 60.3954,302.063 63.3954,305.73 67.5,308.5C 68.973,310.395 70.6397,312.061 72.5,313.5C 71.1266,313.657 69.7932,313.49 68.5,313C 65.8244,310.661 62.8244,308.828 59.5,307.5C 57.9796,301.696 55.1462,296.696 51,292.5C 49.083,286.997 48.2496,281.331 48.5,275.5 Z"/></g>
<g><path style="opacity:1" fill="#79291e" d="M 329.5,290.5 C 331.975,291.687 332.975,293.687 332.5,296.5C 331.857,294.924 330.857,293.59 329.5,292.5C 329.5,291.833 329.5,291.167 329.5,290.5 Z"/></g>
<g><path style="opacity:1" fill="#b04422" d="M 147.5,287.5 C 148.167,287.5 148.833,287.5 149.5,287.5C 149.167,288.833 148.833,290.167 148.5,291.5C 148.657,292.873 148.49,294.207 148,295.5C 145.494,297.867 142.994,300.201 140.5,302.5C 141.809,299.222 143.642,296.222 146,293.5C 146.813,291.564 147.313,289.564 147.5,287.5 Z"/></g>
<g><path style="opacity:1" fill="#120239" d="M 147.5,287.5 C 147.313,289.564 146.813,291.564 146,293.5C 143.642,296.222 141.809,299.222 140.5,302.5C 140.5,302.833 140.5,303.167 140.5,303.5C 136.874,305.459 133.874,308.126 131.5,311.5C 130.167,311.833 128.833,312.167 127.5,312.5C 128.641,310.912 130.141,309.579 132,308.5C 132.483,307.552 132.649,306.552 132.5,305.5C 130.856,305.286 129.356,305.62 128,306.5C 127.075,305.953 126.242,305.287 125.5,304.5C 127.423,303.692 129.423,303.192 131.5,303C 132.551,301.615 133.884,300.615 135.5,300C 134.663,298.989 134.33,297.822 134.5,296.5C 136.167,296.5 137.833,296.5 139.5,296.5C 140.163,294.958 140.83,293.291 141.5,291.5C 142.417,292.127 143.417,292.461 144.5,292.5C 145.065,290.58 146.065,288.913 147.5,287.5 Z"/></g>
<g><path style="opacity:1" fill="#923a29" d="M 271.5,279.5 C 268.761,282.233 266.427,285.233 264.5,288.5C 263.656,290.843 262.656,293.176 261.5,295.5C 260.167,297.5 258.833,299.5 257.5,301.5C 257.5,301.167 257.5,300.833 257.5,300.5C 259.292,292.781 262.959,286.114 268.5,280.5C 269.325,279.614 270.325,279.281 271.5,279.5 Z"/></g>
<g><path style="opacity:1" fill="#742921" d="M 140.5,303.5 C 138.032,306.879 135.032,309.546 131.5,311.5C 133.874,308.126 136.874,305.459 140.5,303.5 Z"/></g>
<g><path style="opacity:1" fill="#e0571c" d="M -0.5,278.5 C 0.458367,278.953 1.2917,279.619 2,280.5C 2.889,289.344 4.889,298.011 8,306.5C 9,307.167 10,307.833 11,308.5C 12.8521,312.257 14.0187,316.257 14.5,320.5C 15.325,321.386 16.325,321.719 17.5,321.5C 17.2196,324.388 18.5529,325.888 21.5,326C 20.3281,327.868 20.4947,329.702 22,331.5C 24.7271,334.601 27.2271,337.934 29.5,341.5C 33.1437,344.23 36.4771,347.397 39.5,351C 39.2716,351.399 38.9382,351.565 38.5,351.5C 15.3188,333.474 2.31876,309.808 -0.5,280.5C -0.5,279.833 -0.5,279.167 -0.5,278.5 Z"/></g>
<g><path style="opacity:1" fill="#29092b" d="M 67.5,308.5 C 71.3488,308.502 74.0155,310.335 75.5,314C 78.7916,314.004 81.4582,315.17 83.5,317.5C 81.5648,316.85 79.5648,316.517 77.5,316.5C 75.5887,315.925 73.922,314.925 72.5,313.5C 70.6397,312.061 68.973,310.395 67.5,308.5 Z"/></g>
<g><path style="opacity:1" fill="#200529" d="M 329.5,292.5 C 330.857,293.59 331.857,294.924 332.5,296.5C 333.167,298.833 333.833,301.167 334.5,303.5C 334.666,308.844 334.499,314.177 334,319.5C 333.722,320.416 333.222,321.082 332.5,321.5C 333.238,311.531 332.238,301.864 329.5,292.5 Z"/></g>
<g><path style="opacity:1" fill="#6f231e" d="M 131.5,311.5 C 129.049,314.277 126.049,316.277 122.5,317.5C 122.5,317.167 122.5,316.833 122.5,316.5C 124.349,315.407 126.016,314.074 127.5,312.5C 128.833,312.167 130.167,311.833 131.5,311.5 Z"/></g>
<g><path style="opacity:1" fill="#2c0a26" d="M 261.5,295.5 C 258.903,306.127 258.903,316.794 261.5,327.5C 260.26,324.976 259.093,322.309 258,319.5C 257.501,313.509 257.334,307.509 257.5,301.5C 258.833,299.5 260.167,297.5 261.5,295.5 Z"/></g>
<g><path style="opacity:1" fill="#641e1f" d="M 77.5,316.5 C 79.5648,316.517 81.5648,316.85 83.5,317.5C 84.1667,318.167 84.8333,318.833 85.5,319.5C 82.3511,319.585 79.6845,318.585 77.5,316.5 Z"/></g>
<g><path style="opacity:1" fill="#1f052c" d="M 409.5,292.5 C 411.97,302.644 412.136,312.977 410,323.5C 409.085,324.328 408.419,325.328 408,326.5C 407.005,331.453 406.338,336.453 406,341.5C 405.329,342.252 404.496,342.586 403.5,342.5C 403.5,341.5 403.5,340.5 403.5,339.5C 403.5,339.167 403.5,338.833 403.5,338.5C 405.288,330.996 406.955,323.329 408.5,315.5C 409.492,308.018 409.825,300.352 409.5,292.5 Z"/></g>
<g><path style="opacity:1" fill="#a5422a" d="M 122.5,317.5 C 119.453,320.19 115.787,321.524 111.5,321.5C 114.827,319.642 118.494,318.309 122.5,317.5 Z"/></g>
<g><path style="opacity:1" fill="#420d20" d="M 395.5,217.5 C 395.5,217.167 395.5,216.833 395.5,216.5C 407.5,216.5 419.5,216.5 431.5,216.5C 431.5,266.833 431.5,317.167 431.5,367.5C 431.167,367.5 430.833,367.5 430.5,367.5C 430.5,363.5 430.5,359.5 430.5,355.5C 430.5,309.5 430.5,263.5 430.5,217.5C 418.833,217.5 407.167,217.5 395.5,217.5 Z"/></g>
<g><path style="opacity:1" fill="#3e0e27" d="M 122.5,316.5 C 122.5,316.833 122.5,317.167 122.5,317.5C 118.494,318.309 114.827,319.642 111.5,321.5C 103.493,321.666 95.4931,321.5 87.5,321C 86.5842,320.722 85.9175,320.222 85.5,319.5C 92.1384,320.498 98.805,320.665 105.5,320C 111.305,319.036 116.972,317.869 122.5,316.5 Z"/></g>
<g><path style="opacity:1" fill="#b04628" d="M 407.5,290.5 C 408.493,298.65 408.826,306.983 408.5,315.5C 406.955,323.329 405.288,330.996 403.5,338.5C 403.674,336.139 404.007,333.806 404.5,331.5C 404.5,329.833 404.5,328.167 404.5,326.5C 407.202,314.814 408.202,302.814 407.5,290.5 Z"/></g>
<g><path style="opacity:1" fill="#792922" d="M 334.5,303.5 C 334.833,303.5 335.167,303.5 335.5,303.5C 337.464,319.678 332.13,332.845 319.5,343C 318.552,343.483 317.552,343.649 316.5,343.5C 324.254,338.019 329.587,330.686 332.5,321.5C 333.222,321.082 333.722,320.416 334,319.5C 334.499,314.177 334.666,308.844 334.5,303.5 Z"/></g>
<g><path style="opacity:1" fill="#cd5420" d="M 257.5,300.5 C 257.5,300.833 257.5,301.167 257.5,301.5C 257.334,307.509 257.501,313.509 258,319.5C 259.093,322.309 260.26,324.976 261.5,327.5C 262.968,332.637 265.968,336.637 270.5,339.5C 270.833,340.167 271.167,340.833 271.5,341.5C 267.561,338.738 263.728,335.738 260,332.5C 259.667,332.833 259.333,333.167 259,333.5C 258.142,325.768 256.975,318.102 255.5,310.5C 255.315,306.859 255.981,303.526 257.5,300.5 Z"/></g>
<g><path style="opacity:1" fill="#330923" d="M 261.5,327.5 C 265.449,330.707 268.449,334.707 270.5,339.5C 265.968,336.637 262.968,332.637 261.5,327.5 Z"/></g>
<g><path style="opacity:1" fill="#6a201c" d="M 189.5,339.5 C 188.042,337.068 186.875,334.401 186,331.5C 185.329,330.748 184.496,330.414 183.5,330.5C 183.604,328.027 184.604,327.361 186.5,328.5C 188.132,331.991 189.132,335.658 189.5,339.5 Z"/></g>
<g><path style="opacity:1" fill="#d85821" d="M 404.5,331.5 C 404.007,333.806 403.674,336.139 403.5,338.5C 403.5,338.833 403.5,339.167 403.5,339.5C 401.926,341.102 401.259,343.102 401.5,345.5C 399.926,347.102 399.259,349.102 399.5,351.5C 397.799,352.211 396.799,353.545 396.5,355.5C 395.833,355.833 395.167,356.167 394.5,356.5C 394.421,353.729 394.921,351.063 396,348.5C 399.439,342.956 402.272,337.289 404.5,331.5 Z"/></g>
<g><path style="opacity:1" fill="#050144" d="M 191.5,349.5 C 193.408,353.414 195.741,357.08 198.5,360.5C 198.5,362.167 198.5,363.833 198.5,365.5C 196.549,365.773 195.049,365.107 194,363.5C 184.943,364.17 176.109,365.17 167.5,366.5C 163.862,365.818 160.195,365.318 156.5,365C 155.167,363 153.833,363 152.5,365C 152.833,365.333 153.167,365.667 153.5,366C 151.098,366.814 148.765,366.647 146.5,365.5C 146.863,364.817 147.196,364.15 147.5,363.5C 149.063,362.055 150.396,360.389 151.5,358.5C 152.167,358.5 152.833,358.5 153.5,358.5C 164.005,353 172.672,345.333 179.5,335.5C 181.012,333.683 183.012,332.683 185.5,332.5C 187.078,336.711 187.578,341.044 187,345.5C 186.667,345.833 186.333,346.167 186,346.5C 184.699,342.498 184.032,342.498 184,346.5C 186.043,347.579 187.376,349.246 188,351.5C 188.915,350.672 189.581,349.672 190,348.5C 190.383,349.056 190.883,349.389 191.5,349.5 Z"/></g>
<g><path style="opacity:1" fill="#601a21" d="M 270.5,339.5 C 272.749,340.08 274.415,341.413 275.5,343.5C 273.938,343.267 272.605,342.6 271.5,341.5C 271.167,340.833 270.833,340.167 270.5,339.5 Z"/></g>
<g><path style="opacity:1" fill="#5a1c21" d="M 403.5,339.5 C 403.5,340.5 403.5,341.5 403.5,342.5C 403.068,343.71 402.401,344.71 401.5,345.5C 401.259,343.102 401.926,341.102 403.5,339.5 Z"/></g>
<g><path style="opacity:1" fill="#170236" d="M 183.5,330.5 C 184.496,330.414 185.329,330.748 186,331.5C 186.875,334.401 188.042,337.068 189.5,339.5C 189.595,341.786 190.262,343.786 191.5,345.5C 191.5,346.833 191.5,348.167 191.5,349.5C 190.883,349.389 190.383,349.056 190,348.5C 189.581,349.672 188.915,350.672 188,351.5C 187.376,349.246 186.043,347.579 184,346.5C 184.032,342.498 184.699,342.498 186,346.5C 186.333,346.167 186.667,345.833 187,345.5C 187.578,341.044 187.078,336.711 185.5,332.5C 183.012,332.683 181.012,333.683 179.5,335.5C 180.124,333.246 181.457,331.579 183.5,330.5 Z"/></g>
<g><path style="opacity:1" fill="#872d1d" d="M 275.5,343.5 C 277.5,344.167 279.5,344.833 281.5,345.5C 281.5,345.833 281.5,346.167 281.5,346.5C 278.607,346.969 276.607,345.969 275.5,343.5 Z"/></g>
<g><path style="opacity:1" fill="#1a032a" d="M 314.5,343.5 C 311.386,346.048 307.719,347.548 303.5,348C 298.177,348.499 292.844,348.666 287.5,348.5C 285.579,347.637 283.579,346.971 281.5,346.5C 281.5,346.167 281.5,345.833 281.5,345.5C 288.021,347.371 294.687,347.871 301.5,347C 302.787,343.178 304.787,342.678 307.5,345.5C 309.851,344.827 312.184,344.16 314.5,343.5 Z"/></g>
<g><path style="opacity:1" fill="#692724" d="M 314.5,343.5 C 315.167,343.5 315.833,343.5 316.5,343.5C 315.657,345.173 314.324,346.34 312.5,347C 309.647,348.43 306.647,349.263 303.5,349.5C 297.974,349.821 292.64,349.488 287.5,348.5C 292.844,348.666 298.177,348.499 303.5,348C 307.719,347.548 311.386,346.048 314.5,343.5 Z"/></g>
<g><path style="opacity:1" fill="#400e21" d="M 401.5,345.5 C 401.741,347.898 401.074,349.898 399.5,351.5C 399.259,349.102 399.926,347.102 401.5,345.5 Z"/></g>
<g><path style="opacity:1" fill="#611a1d" d="M 179.5,335.5 C 172.672,345.333 164.005,353 153.5,358.5C 156.312,355.599 159.312,352.932 162.5,350.5C 168.534,345.792 174.201,340.792 179.5,335.5 Z"/></g>
<g><path style="opacity:1" fill="#b24723" d="M 281.5,346.5 C 283.579,346.971 285.579,347.637 287.5,348.5C 292.64,349.488 297.974,349.821 303.5,349.5C 298.015,350.652 292.349,350.818 286.5,350C 284.416,349.303 282.749,348.136 281.5,346.5 Z"/></g>
<g><path style="opacity:1" fill="#e45817" d="M 162.5,350.5 C 159.312,352.932 156.312,355.599 153.5,358.5C 152.833,358.5 152.167,358.5 151.5,358.5C 147.9,360.11 144.566,362.11 141.5,364.5C 139.565,365.15 137.565,365.483 135.5,365.5C 135.539,364.417 135.873,363.417 136.5,362.5C 135.167,361.833 133.833,361.167 132.5,360.5C 134.465,359.708 136.465,359.041 138.5,358.5C 138.736,359.247 139.07,360.08 139.5,361C 144.39,362.087 146.89,360.253 147,355.5C 144.828,354.491 143.662,352.824 143.5,350.5C 144.5,350.5 145.5,350.5 146.5,350.5C 147.733,354.132 150.399,355.798 154.5,355.5C 154.5,354.167 154.5,352.833 154.5,351.5C 157.206,351.425 159.873,351.092 162.5,350.5 Z"/></g>
<g><path style="opacity:1" fill="#6b2023" d="M 191.5,345.5 C 193.766,349.458 196.099,353.458 198.5,357.5C 199.11,358.391 199.443,359.391 199.5,360.5C 199.167,360.5 198.833,360.5 198.5,360.5C 195.741,357.08 193.408,353.414 191.5,349.5C 191.5,348.167 191.5,346.833 191.5,345.5 Z"/></g>
<g><path style="opacity:1" fill="#3c1225" d="M 151.5,358.5 C 150.396,360.389 149.063,362.055 147.5,363.5C 145.565,364.15 143.565,364.483 141.5,364.5C 144.566,362.11 147.9,360.11 151.5,358.5 Z"/></g>
<g><path style="opacity:1" fill="#01004b" d="M 407.5,363.5 C 409.833,363.5 412.167,363.5 414.5,363.5C 414.144,368.635 415.977,372.635 420,375.5C 421.3,374.293 422.8,373.626 424.5,373.5C 424.342,376.361 425.008,379.028 426.5,381.5C 425.808,387.327 425.141,393.161 424.5,399C 424.945,400.447 425.612,401.78 426.5,403C 426.355,403.772 426.022,404.439 425.5,405C 405.502,406.722 385.502,406.889 365.5,405.5C 360.412,403.442 360.745,401.776 366.5,400.5C 367.167,400.667 367.833,400.833 368.5,401C 367.167,401.667 367.167,402.333 368.5,403C 374.281,403.903 379.947,403.57 385.5,402C 382.422,400.84 379.756,400.34 377.5,400.5C 379.968,398.534 382.301,396.368 384.5,394C 386.652,392.587 388.986,391.754 391.5,391.5C 391.449,389.43 392.115,387.597 393.5,386C 391.811,384.642 390.478,382.975 389.5,381C 391.602,379.267 391.935,377.267 390.5,375C 391.701,374.097 392.535,372.931 393,371.5C 393.967,372.678 394.467,374.011 394.5,375.5C 396.021,375.12 397.687,374.954 399.5,375C 400.435,372.619 400.768,370.119 400.5,367.5C 402.833,367.5 405.167,367.5 407.5,367.5C 407.5,366.167 407.5,364.833 407.5,363.5 Z"/></g>
<g><path style="opacity:1" fill="#943b26" d="M 396.5,355.5 C 395.088,357.998 393.921,360.664 393,363.5C 392.241,365.063 391.074,366.063 389.5,366.5C 389.733,364.938 390.4,363.605 391.5,362.5C 392.5,360.5 393.5,358.5 394.5,356.5C 395.167,356.167 395.833,355.833 396.5,355.5 Z"/></g>
<g><path style="opacity:0.716" fill="#0a0c3b" d="M 198.5,360.5 C 198.833,360.5 199.167,360.5 199.5,360.5C 199.5,361.167 199.5,361.833 199.5,362.5C 200.63,364.315 201.296,366.315 201.5,368.5C 180.833,368.5 160.167,368.5 139.5,368.5C 140.167,367.167 140.833,365.833 141.5,364.5C 143.565,364.483 145.565,364.15 147.5,363.5C 147.196,364.15 146.863,364.817 146.5,365.5C 148.765,366.647 151.098,366.814 153.5,366C 153.167,365.667 152.833,365.333 152.5,365C 153.833,363 155.167,363 156.5,365C 160.195,365.318 163.862,365.818 167.5,366.5C 176.109,365.17 184.943,364.17 194,363.5C 195.049,365.107 196.549,365.773 198.5,365.5C 198.5,363.833 198.5,362.167 198.5,360.5 Z"/></g>
<g><path style="opacity:0.657" fill="#d0591f" d="M 391.5,362.5 C 390.4,363.605 389.733,364.938 389.5,366.5C 389.5,367.833 388.833,368.5 387.5,368.5C 326.167,368.5 264.833,368.5 203.5,368.5C 203.378,365.708 202.044,363.708 199.5,362.5C 199.5,361.833 199.5,361.167 199.5,360.5C 199.443,359.391 199.11,358.391 198.5,357.5C 199.822,357.67 200.989,357.337 202,356.5C 202.492,357.549 202.326,358.549 201.5,359.5C 203.02,361.662 204.02,363.995 204.5,366.5C 265.833,366.5 327.167,366.5 388.5,366.5C 388.5,365.167 388.5,363.833 388.5,362.5C 389.5,362.5 390.5,362.5 391.5,362.5 Z"/></g>
<g><path style="opacity:0.157" fill="#451f28" d="M 141.5,364.5 C 140.833,365.833 140.167,367.167 139.5,368.5C 136.833,368.5 134.167,368.5 131.5,368.5C 132.833,367.5 134.167,366.5 135.5,365.5C 137.565,365.483 139.565,365.15 141.5,364.5 Z"/></g>
<g><path style="opacity:0.098" fill="#592322" d="M 199.5,362.5 C 202.044,363.708 203.378,365.708 203.5,368.5C 202.833,368.5 202.167,368.5 201.5,368.5C 201.296,366.315 200.63,364.315 199.5,362.5 Z"/></g>
<g><path style="opacity:0.629" fill="#d35f28" d="M 135.5,365.5 C 134.167,366.5 132.833,367.5 131.5,368.5C 113.114,373.311 94.7809,373.644 76.5,369.5C 90.8151,370.558 105.148,370.725 119.5,370C 124.98,368.781 130.313,367.281 135.5,365.5 Z"/></g>
<g><path style="opacity:0.965" fill="#18103a" d="M 399.5,351.5 C 396.69,358.601 393.69,365.601 390.5,372.5C 388.513,374.327 386.179,375.327 383.5,375.5C 383.045,378.462 381.879,381.129 380,383.5C 377.187,385.15 374.687,387.15 372.5,389.5C 371.575,390.641 370.741,390.641 370,389.5C 363.602,395.8 356.102,400.133 347.5,402.5C 360.275,395.677 371.775,387.011 382,376.5C 384.054,373.953 385.887,371.286 387.5,368.5C 388.833,368.5 389.5,367.833 389.5,366.5C 391.074,366.063 392.241,365.063 393,363.5C 393.921,360.664 395.088,357.998 396.5,355.5C 396.799,353.545 397.799,352.211 399.5,351.5 Z"/></g>
<g><path style="opacity:0.416" fill="#625d77" d="M 319.5,410.5 C 318.571,411.315 317.571,412.148 316.5,413C 319.958,414.415 323.625,414.915 327.5,414.5C 319.931,415.909 312.265,415.742 304.5,414C 309.263,412.053 314.263,410.886 319.5,410.5 Z"/></g>
<g><path style="opacity:0.615" fill="#0c0b42" d="M 429.5,350.5 C 429.216,352.415 429.549,354.081 430.5,355.5C 430.5,359.5 430.5,363.5 430.5,367.5C 430.5,382.833 430.5,398.167 430.5,413.5C 393.498,413.667 356.498,413.5 319.5,413C 324.874,411.821 330.207,410.321 335.5,408.5C 335.5,409.5 335.5,410.5 335.5,411.5C 366.486,412.795 397.486,412.795 428.5,411.5C 428.709,410.914 429.043,410.414 429.5,410C 428.665,391.998 427.998,374.165 427.5,356.5C 427.054,353.99 427.72,351.99 429.5,350.5 Z"/></g>
<g><path style="opacity:0.115" fill="#2f2a54" d="M 430.5,367.5 C 430.833,367.5 431.167,367.5 431.5,367.5C 431.328,368.492 431.662,369.158 432.5,369.5C 432.817,384.215 432.483,398.882 431.5,413.5C 396.84,414.5 362.173,414.833 327.5,414.5C 323.625,414.915 319.958,414.415 316.5,413C 317.571,412.148 318.571,411.315 319.5,410.5C 329.125,408.847 338.458,406.18 347.5,402.5C 346.71,403.794 345.71,404.961 344.5,406C 341.278,406.199 338.278,407.032 335.5,408.5C 330.207,410.321 324.874,411.821 319.5,413C 356.498,413.5 393.498,413.667 430.5,413.5C 430.5,398.167 430.5,382.833 430.5,367.5 Z"/></g>
</svg>
